<svg width="18" height="21" viewBox="0 0 18 21" fill="none" xmlns="http://www.w3.org/2000/svg">
<path d="M11.7537 7C11.7045 6.38447 11.4737 5.90436 11.0613 5.55966C10.655 5.21496 10.0364 5.04261 9.20543 5.04261C8.67608 5.04261 8.24213 5.10724 7.90359 5.2365C7.5712 5.35961 7.32499 5.52888 7.16495 5.74432C7.00491 5.95975 6.92182 6.20597 6.91566 6.48295C6.90335 6.7107 6.94336 6.9169 7.03569 7.10156C7.13417 7.28007 7.28806 7.44318 7.49734 7.59091C7.70662 7.73248 7.97437 7.86174 8.3006 7.97869C8.62684 8.09564 9.01462 8.20028 9.46396 8.29261L11.0151 8.625C12.0615 8.84659 12.9571 9.13897 13.7019 9.50213C14.4467 9.86529 15.056 10.2931 15.53 10.7855C16.004 11.2718 16.3517 11.8196 16.5733 12.429C16.8011 13.0384 16.918 13.7031 16.9242 14.4233C16.918 15.6667 16.6072 16.7192 15.9917 17.581C15.3761 18.4427 14.4959 19.0982 13.351 19.5476C12.2123 19.9969 10.8427 20.2216 9.24237 20.2216C7.5989 20.2216 6.16471 19.9785 4.93981 19.4922C3.72106 19.0059 2.77314 18.258 2.09606 17.2486C1.42513 16.233 1.08659 14.9342 1.08043 13.3523H5.95543C5.98621 13.9309 6.13086 14.4171 6.38938 14.8111C6.64791 15.205 7.01107 15.5036 7.47887 15.7067C7.95283 15.9098 8.51604 16.0114 9.1685 16.0114C9.71632 16.0114 10.1749 15.9437 10.5442 15.8082C10.9135 15.6728 11.1936 15.4851 11.3844 15.245C11.5752 15.005 11.6737 14.7311 11.6799 14.4233C11.6737 14.134 11.5783 13.8816 11.3936 13.6662C11.2151 13.4446 10.9197 13.2476 10.5073 13.0753C10.0949 12.8968 9.53782 12.7306 8.83612 12.5767L6.95259 12.1705C5.27835 11.8073 3.95804 11.201 2.99165 10.3516C2.03143 9.49598 1.55439 8.32955 1.56055 6.85227C1.55439 5.65199 1.87447 4.60251 2.52077 3.70384C3.17324 2.79901 4.07499 2.09422 5.22603 1.58949C6.38323 1.08475 7.7097 0.832386 9.20543 0.832386C10.7319 0.832386 12.0523 1.08783 13.1664 1.59872C14.2805 2.10961 15.1391 2.82978 15.7424 3.75923C16.3517 4.68253 16.6595 5.76278 16.6657 7H11.7537Z" fill="#FF430A"/>
</svg>
