<svg width="20" height="20" viewBox="0 0 20 20" fill="none" xmlns="http://www.w3.org/2000/svg">
<path d="M19 19V17.5503C19 16.5735 19 16.0856 18.8644 15.6867C18.6972 15.1928 18.3807 14.7429 17.9452 14.3801C17.5096 14.0172 16.9696 13.7535 16.3768 13.6142C15.898 13.5012 15.3124 13.5012 14.14 13.5012H5.86C4.6876 13.5012 4.102 13.5012 3.6232 13.6142C3.03038 13.7535 2.49038 14.0172 2.05484 14.3801C1.6193 14.7429 1.3028 15.1928 1.1356 15.6867C1 16.0856 1 16.5735 1 17.5503V19M15.64 5.0631C15.64 7.3076 13.384 9.12719 10.6 9.12719C7.816 9.12719 5.56 7.3076 5.56 5.0631C5.56 2.8186 7.816 1 10.6 1C13.384 1 15.64 2.8196 15.64 5.0631Z" stroke="white" stroke-width="2" stroke-linecap="round"/>
</svg>
