<svg width="20" height="20" viewBox="0 0 20 20" fill="none" xmlns="http://www.w3.org/2000/svg">
<path d="M1 5.5C1 3.37825 1 2.3185 1.586 1.65925C2.172 1 3.114 1 5 1H15C16.886 1 17.828 1 18.414 1.65925C19 2.3185 19 3.37825 19 5.5V14.5C19 16.6218 19 17.6815 18.414 18.3407C17.828 19 16.886 19 15 19H5C3.114 19 2.172 19 1.586 18.3407C1 17.6815 1 16.6218 1 14.5V5.5Z" stroke="white" stroke-width="2" stroke-linecap="round"/>
<path d="M5 1V7.1875M5 7.1875H1M5 7.1875V10M5 19V10M5 10H15M15 1V7.1875M15 7.1875V12.8125M15 7.1875H19M15 19V12.8125M15 12.8125H19M1 12.8125H5" stroke="white" stroke-width="2"/>
</svg>
