<svg width="16" height="20" viewBox="0 0 16 20" fill="none" xmlns="http://www.w3.org/2000/svg">
<path d="M1 7.5L2.087 15.536C2.31 17.186 2.422 18.012 2.987 18.506C3.553 19 4.385 19 6.051 19H9.949C11.615 19 12.448 19 13.013 18.506C13.578 18.012 13.69 17.186 13.913 15.536L15 7.5M5 4C5 3.068 5 2.602 5.152 2.235C5.25251 1.99218 5.3999 1.77155 5.58572 1.58572C5.77155 1.3999 5.99218 1.25251 6.235 1.152C6.602 1 7.068 1 8 1C8.932 1 9.398 1 9.765 1.152C10.0078 1.25251 10.2284 1.3999 10.4143 1.58572C10.6001 1.77155 10.7475 1.99218 10.848 2.235C11 2.602 11 3.068 11 4M15 4H1" stroke="white" stroke-width="2" stroke-linecap="round" stroke-linejoin="round"/>
</svg>
