<svg width="20" height="20" viewBox="0 0 20 20" fill="none" xmlns="http://www.w3.org/2000/svg">
<path d="M9.04225 2.81627C9.43661 1.60576 9.6338 1 9.99999 1C10.3662 1 10.5634 1.60576 10.9577 2.81627L12.2897 6.90988C12.3984 7.24319 12.4527 7.40985 12.5855 7.50565C12.7173 7.60146 12.8943 7.60146 13.2474 7.60146H16.9526C18.2323 7.60146 18.8721 7.60146 18.9848 7.94675C19.0975 8.29204 18.5794 8.66428 17.5422 9.40775L14.3651 11.6871C14.0794 11.8927 13.9366 11.9954 13.8853 12.1491C13.835 12.3038 13.8893 12.4695 13.9969 12.8028L15.343 16.9323C15.7323 18.1299 15.9265 18.7286 15.6327 18.9402C15.337 19.1528 14.8239 18.7855 13.7957 18.048L10.5895 15.7497C10.3048 15.5462 10.163 15.4444 9.99999 15.4444C9.83701 15.4444 9.69516 15.5462 9.41046 15.7497L6.20425 18.048C5.17609 18.7845 4.66301 19.1528 4.36724 18.9402C4.07247 18.7276 4.26764 18.1299 4.65697 16.9323L6.00304 12.8028C6.11069 12.4695 6.16501 12.3038 6.1137 12.1491C6.0634 11.9954 5.92055 11.8927 5.63483 11.6871L2.4578 9.40775C1.42159 8.66428 0.902478 8.29204 1.01515 7.94675C1.12783 7.60146 1.76766 7.60146 3.04733 7.60146H6.75253C7.10565 7.60146 7.28271 7.60146 7.4145 7.50565C7.54729 7.40985 7.60162 7.24319 7.71027 6.90988L9.04225 2.81627Z" stroke="white" stroke-width="2" stroke-linecap="round"/>
</svg>
