<svg width="19" height="19" viewBox="0 0 19 19" fill="none" xmlns="http://www.w3.org/2000/svg">
<path d="M7.91361 9.74592C7.82307 9.83337 7.75085 9.93798 7.70117 10.0536C7.65149 10.1693 7.62534 10.2937 7.62424 10.4196C7.62315 10.5454 7.64713 10.6703 7.6948 10.7868C7.74247 10.9033 7.81286 11.0091 7.90186 11.0981C7.99087 11.1871 8.09672 11.2575 8.21322 11.3052C8.32972 11.3529 8.45455 11.3768 8.58043 11.3757C8.7063 11.3746 8.83069 11.3485 8.94635 11.2988C9.06201 11.2491 9.16661 11.1769 9.25406 11.0864L7.91361 9.74592ZM15.8899 4.4505L16.5602 3.78028L15.2197 2.43983L14.5495 3.11005L15.8899 4.4505ZM16.4454 1.21409L15.7752 1.88431L17.1157 3.22476L17.7859 2.55454L16.4454 1.21409ZM18.7339 1.60656C18.9066 1.42776 19.0021 1.1883 19 0.939744C18.9978 0.691186 18.8981 0.453421 18.7223 0.277657C18.5466 0.101894 18.3088 0.00219574 18.0602 3.58362e-05C17.8117 -0.00212406 17.5722 0.0934271 17.3934 0.26611L18.7339 1.60656ZM9.25406 11.0864L15.8899 4.4505L14.5495 3.11005L7.91361 9.74592L9.25406 11.0864ZM17.7859 2.55454L18.7339 1.60656L17.3934 0.26611L16.4454 1.21409L17.7859 2.55454Z" fill="white"/>
<path d="M7.63587 4.72826H4.79193C3.00403 4.72826 2.11103 4.72826 1.55552 5.28377C1 5.83929 1 6.73229 1 8.52018V14.2081C1 15.996 1 16.889 1.55552 17.4445C2.11103 18 3.00403 18 4.79193 18H10.4798C12.2677 18 13.1607 18 13.7162 17.4445C14.2717 16.889 14.2717 15.996 14.2717 14.2081V11.3641" stroke="white" stroke-width="2" stroke-linecap="round"/>
</svg>
