<svg width="18" height="18" viewBox="0 0 18 18" fill="none" xmlns="http://www.w3.org/2000/svg">
<mask id="mask0_7_54" style="mask-type:luminance" maskUnits="userSpaceOnUse" x="0" y="0" width="18" height="18">
<path d="M0 0H18V18H0V0Z" fill="white"/>
</mask>
<g mask="url(#mask0_7_54)">
<mask id="mask1_7_54" style="mask-type:luminance" maskUnits="userSpaceOnUse" x="0" y="0" width="18" height="18">
<path d="M18 18L0 18L0 -7.62939e-06L18 -7.62939e-06L18 18Z" fill="white"/>
</mask>
<g mask="url(#mask1_7_54)">
<path d="M3 6.75L6.879 10.629C7.87875 11.6287 8.379 12.129 9 12.129C9.621 12.129 10.1212 11.6287 11.121 10.629L15 6.75" stroke="white" stroke-width="2" stroke-linecap="round" stroke-linejoin="round"/>
<path d="M3 6.75L6.879 10.629C7.87875 11.6287 8.379 12.129 9 12.129C9.621 12.129 10.1212 11.6287 11.121 10.629L15 6.75" stroke="white" stroke-width="2" stroke-linecap="round" stroke-linejoin="round"/>
</g>
</g>
</svg>
